<svg width="1555" height="1275" viewBox="0 0 1555 1275" fill="none" xmlns="http://www.w3.org/2000/svg">
<circle cx="925" cy="634" r="288.5" stroke="#3387B6" stroke-width="49"/>
<mask id="path-2-inside-1_52_30" fill="white">
<path d="M554.675 903.488C611.947 982.189 692.802 1040.6 785.511 1070.24C878.221 1099.89 977.964 1099.22 1070.27 1068.35C1162.58 1037.48 1242.65 977.999 1298.87 898.544C1355.09 819.089 1384.54 723.79 1382.94 626.469C1381.34 529.148 1348.77 434.868 1289.97 357.305C1231.17 279.742 1149.18 222.929 1055.91 195.108C962.638 167.287 862.927 169.904 771.242 202.581C679.557 235.257 600.667 296.293 546.014 376.835L634.748 437.046C676.604 375.362 737.024 328.617 807.242 303.591C877.46 278.565 953.826 276.56 1025.26 297.868C1096.69 319.175 1159.48 362.686 1204.52 422.089C1249.55 481.492 1274.49 553.698 1275.72 628.232C1276.94 702.767 1254.39 775.754 1211.34 836.605C1168.28 897.457 1106.95 943.009 1036.26 966.654C965.563 990.298 889.174 990.806 818.17 968.102C747.167 945.399 685.243 900.666 641.381 840.391L554.675 903.488Z"/>
</mask>
<path d="M554.675 903.488C611.947 982.189 692.802 1040.6 785.511 1070.24C878.221 1099.89 977.964 1099.22 1070.27 1068.35C1162.58 1037.48 1242.65 977.999 1298.87 898.544C1355.09 819.089 1384.54 723.79 1382.94 626.469C1381.34 529.148 1348.77 434.868 1289.97 357.305C1231.17 279.742 1149.18 222.929 1055.91 195.108C962.638 167.287 862.927 169.904 771.242 202.581C679.557 235.257 600.667 296.293 546.014 376.835L634.748 437.046C676.604 375.362 737.024 328.617 807.242 303.591C877.46 278.565 953.826 276.56 1025.26 297.868C1096.69 319.175 1159.48 362.686 1204.52 422.089C1249.55 481.492 1274.49 553.698 1275.72 628.232C1276.94 702.767 1254.39 775.754 1211.34 836.605C1168.28 897.457 1106.95 943.009 1036.26 966.654C965.563 990.298 889.174 990.806 818.17 968.102C747.167 945.399 685.243 900.666 641.381 840.391L554.675 903.488Z" stroke="#3387B6" stroke-width="218" mask="url(#path-2-inside-1_52_30)"/>
<line x1="656" y1="528.5" x2="385" y2="528.5" stroke="#3387B6" stroke-width="49"/>
<line x1="656" y1="637.5" x2="286" y2="637.5" stroke="#3387B6" stroke-width="49"/>
<line y1="-24.5" x2="271" y2="-24.5" transform="matrix(-1 8.74228e-08 8.74228e-08 1 656 771.719)" stroke="#3387B6" stroke-width="49"/>
<line x1="294" y1="424.5" x2="169" y2="424.5" stroke="#3387B6" stroke-width="49"/>
<line y1="-24.5" x2="125" y2="-24.5" transform="matrix(-1 8.74228e-08 8.74228e-08 1 294 875.719)" stroke="#3387B6" stroke-width="49"/>
<line x1="403.321" y1="535.629" x2="277.249" y2="417.945" stroke="#3387B6" stroke-width="49"/>
<line y1="-24.5" x2="172.463" y2="-24.5" transform="matrix(-0.731009 0.682368 0.682368 0.731009 420.039 758)" stroke="#3387B6" stroke-width="49"/>
<circle cx="89" cy="429" r="64.5" stroke="#3387B6" stroke-width="49"/>
<circle cx="205" cy="634" r="64.5" stroke="#3387B6" stroke-width="49"/>
<circle cx="89" cy="839" r="64.5" stroke="#3387B6" stroke-width="49"/>
<path d="M434.5 287.5L597.5 345L635 437H430L381.5 383L434.5 287.5Z" fill="#3387B6"/>
<path d="M434.948 980.692L600.325 930.435L641.846 840.178L437.045 831.139L386.211 882.947L434.948 980.692Z" fill="#3387B6"/>
<path d="M677.5 103L775.5 214L722.5 274.5L632.5 303L587.5 159L677.5 103Z" fill="#3387B6"/>
<path d="M979.053 46.9111L1004.83 192.721L928.065 216.727L836.403 194.138L873.057 47.7912L979.053 46.9111Z" fill="#3387B6"/>
<path d="M1263.72 152.134L1212.8 291.175L1134.36 273.391L1066.43 207.832L1171.61 99.6741L1263.72 152.134Z" fill="#3387B6"/>
<path d="M1456.09 387.255L1343.99 483.994L1284.1 430.313L1256.62 339.997L1401.11 296.627L1456.09 387.255Z" fill="#3387B6"/>
<path d="M1507.87 688.362L1362.21 714.951L1337.78 638.32L1359.86 546.534L1506.4 582.372L1507.87 688.362Z" fill="#3387B6"/>
<path d="M1394.69 973.013L1256.75 919.198L1276.17 841.146L1343.13 774.603L1449.07 882.021L1394.69 973.013Z" fill="#3387B6"/>
<path d="M1165.97 1166.2L1070.55 1052.98L1124.93 993.712L1215.56 967.29L1257.24 1112.29L1165.97 1166.2Z" fill="#3387B6"/>
<path d="M869.093 1227.94L841.996 1082.37L918.541 1057.67L1010.4 1079.43L975.077 1226.1L869.093 1227.94Z" fill="#3387B6"/>
<path d="M587.14 1118.6L635.686 978.718L714.418 995.165L783.452 1059.56L680.128 1169.49L587.14 1118.6Z" fill="#3387B6"/>
<path d="M734.109 681.756V653.663H738.616C740.129 652.641 741.513 651.213 742.771 649.381C744.028 647.527 745.104 644.928 745.999 641.582C746.893 638.216 747.533 633.773 747.916 628.255L749.962 600.545H794.738V653.663H801.769V681.724H786.556V666H749.322V681.756H734.109ZM756.769 653.663H779.525V613.393H764.152L763.129 628.255C762.852 632.41 762.405 636.075 761.787 639.249C761.169 642.424 760.434 645.194 759.582 647.559C758.729 649.903 757.792 651.937 756.769 653.663ZM809.024 666V616.909H830.214C836.542 616.909 841.528 618.049 845.171 620.329C848.836 622.587 850.668 625.901 850.668 630.268C850.668 632.804 849.635 634.988 847.568 636.82C845.523 638.631 842.614 639.857 838.843 640.496C842.167 640.666 844.926 641.327 847.121 642.477C849.315 643.628 850.956 645.087 852.043 646.856C853.129 648.624 853.673 650.51 853.673 652.513C853.673 655.411 852.895 657.861 851.339 659.864C849.784 661.866 847.504 663.39 844.5 664.434C841.517 665.478 837.852 666 833.506 666H809.024ZM823.566 654.686H833.506C835.168 654.686 836.467 654.292 837.405 653.504C838.364 652.715 838.843 651.629 838.843 650.244C838.843 648.752 838.364 647.58 837.405 646.728C836.467 645.876 835.168 645.45 833.506 645.45H823.566V654.686ZM823.566 636.98H830.629C831.759 636.98 832.728 636.81 833.538 636.469C834.347 636.128 834.965 635.638 835.391 634.999C835.839 634.359 836.062 633.592 836.062 632.697C836.062 631.398 835.54 630.375 834.496 629.629C833.474 628.884 832.046 628.511 830.214 628.511H823.566V636.98ZM876.205 645.769L891.897 616.909H906.918V666H892.121V637.044L876.46 666H861.407V616.909H876.205V645.769ZM913.606 666L929.874 640.24L913.638 616.909H931.408L942.945 635.51H944.384V616.909H960.012V635.51H961.419L972.956 616.909H990.726L974.522 640.24L990.758 666H972.573L961.291 647.463H960.012V666H944.384V647.463H943.105L931.791 666H913.606ZM997.374 600.545H1013.16V638.259H1013.71L1039.47 600.545H1053.08V666H1037.26V628.223H1036.84L1010.77 666H997.374V600.545ZM1060.89 613.393V600.545H1116.21V613.393H1096.36V666H1080.77V613.393H1060.89Z" fill="#3387B6"/>
</svg>
